<svg width="53" height="698" xmlns="http://www.w3.org/2000/svg" xmlns:xlink="http://www.w3.org/1999/xlink" xml:space="preserve" overflow="hidden"><defs><clipPath id="clip0"><rect x="2353" y="850" width="53" height="698"/></clipPath></defs><g clip-path="url(#clip0)" transform="translate(-2353 -850)"><path d="M2368 887 2368 885.439 2375.7 884.735 2377.47 884.735 2385.38 885.439 2385.38 887 2368 887ZM2373.08 887C2373.23 881.362 2373.23 875.623 2373.23 869.784L2373.23 867.267C2373.23 861.478 2373.23 855.739 2373.08 850L2379.62 850C2379.46 855.638 2379.46 861.427 2379.46 867.669L2379.46 868.978C2379.46 875.523 2379.46 881.311 2379.62 887L2373.08 887ZM2376.38 869.079 2376.38 867.317 2389.25 867.317 2389.25 869.079 2376.38 869.079ZM2388.73 874.465 2388 868.878 2388 867.468 2388.73 862.031 2390.88 862.031 2390.88 874.465 2388.73 874.465ZM2368 851.611 2368 850 2376.38 850 2376.38 852.215 2375.7 852.215 2368 851.611ZM2394.54 859.414 2392.29 850.201 2395.48 851.863 2376.38 851.863 2376.38 850 2396.84 850 2397 859.414 2394.54 859.414Z" fill="#5B5651" fill-rule="evenodd"/><path d="M2380.58 1053C2374.78 1053 2370.86 1050.2 2370 1045.37 2370.41 1044.3 2371.32 1043.74 2372.39 1043.74 2373.76 1043.74 2374.58 1044.51 2374.93 1046.59L2376.25 1051.42 2374.53 1050C2376.25 1050.91 2377.58 1051.37 2379.81 1051.37 2385.46 1051.37 2388.71 1047.76 2388.71 1041.25 2388.71 1035.04 2385.36 1032.04 2380.22 1032.04 2378.08 1032.04 2376.15 1032.4 2374.37 1033.16L2373.05 1032.55 2374.22 1015 2392.93 1015 2392.93 1019.07 2375.09 1019.07 2376.15 1016.27 2375.03 1032.25 2373.41 1031.69C2376.1 1030.36 2378.64 1029.85 2381.64 1029.85 2389.17 1029.85 2394 1033.72 2394 1041.05 2394 1048.37 2388.66 1053 2380.58 1053Z" fill="#5B5651" fill-rule="evenodd"/><path d="M2357.21 1216.9 2357.21 1215.48 2364.53 1214.66 2369.11 1214.66 2375.86 1215.53 2375.86 1217 2357.21 1216.9ZM2364.07 1216.9C2364.17 1212.99 2364.22 1209.02 2364.22 1205.16L2364.22 1182.56 2357 1183.67 2357 1182.1 2368.74 1179.2 2369.52 1179.76 2369.31 1187.84 2369.31 1205.16C2369.31 1209.02 2369.37 1212.99 2369.47 1216.9L2364.07 1216.9ZM2381.2 1216.9 2381.2 1213.85C2384.58 1209.99 2387.96 1206.13 2390.5 1203.23 2396.06 1196.78 2398.35 1193.28 2398.35 1188.6 2398.35 1183.47 2395.7 1180.57 2391.18 1180.57 2389.36 1180.57 2387.54 1181.03 2385.46 1182.2L2387.7 1180.73 2386.35 1185.81C2385.88 1188.09 2384.84 1188.75 2383.59 1188.75 2382.5 1188.75 2381.56 1188.14 2381.2 1187.08 2381.98 1181.74 2387.12 1179 2392.74 1179 2399.96 1179 2403.54 1182.76 2403.54 1188.75 2403.54 1193.58 2400.12 1197.34 2391.85 1205.16 2390.19 1206.79 2386.87 1210.24 2383.49 1213.65L2384.01 1212.02 2384.01 1212.83 2405 1212.83 2405 1216.9 2381.2 1216.9Z" fill="#5B5651" fill-rule="evenodd"/><path d="M2357.21 1382.13 2357.21 1380.7 2364.55 1379.88 2369.13 1379.88 2375.9 1380.75 2375.9 1382.23 2357.21 1382.13ZM2364.08 1382.13C2364.19 1378.2 2364.24 1374.21 2364.24 1370.32L2364.24 1347.58 2357 1348.7 2357 1347.12 2368.77 1344.2 2369.55 1344.77 2369.34 1352.89 2369.34 1370.32C2369.34 1374.21 2369.39 1378.2 2369.5 1382.13L2364.08 1382.13ZM2383.49 1383 2383.13 1381.67C2394.64 1377.68 2399.84 1370.02 2399.84 1358.93 2399.84 1349.72 2396.72 1345.58 2392.66 1345.58 2388.86 1345.58 2385.73 1348.91 2385.73 1355.45 2385.73 1361.58 2388.96 1365.16 2393.6 1365.16 2396.36 1365.16 2398.7 1363.93 2400.63 1361.53L2401.72 1361.79 2401.25 1361.79C2399.58 1365.11 2396.2 1367.26 2391.72 1367.26 2385.32 1367.26 2380.63 1362.96 2380.63 1356.01 2380.63 1348.45 2385.89 1344 2392.66 1344 2400.26 1344 2405 1349.72 2405 1359.23 2405 1370.58 2397.29 1379.73 2383.49 1383Z" fill="#5B5651" fill-rule="evenodd"/><path d="M2353 1547.18 2353 1544.11C2356.35 1540.22 2359.7 1536.33 2362.23 1533.41 2367.74 1526.91 2370.01 1523.38 2370.01 1518.67 2370.01 1513.5 2367.38 1510.59 2362.9 1510.59 2361.09 1510.59 2359.29 1511.05 2357.23 1512.22L2359.44 1510.74 2358.1 1515.86C2357.64 1518.16 2356.61 1518.83 2355.37 1518.83 2354.29 1518.83 2353.36 1518.21 2353 1517.14 2353.77 1511.76 2358.88 1509 2364.44 1509 2371.61 1509 2375.16 1512.79 2375.16 1518.83 2375.16 1523.69 2371.76 1527.48 2363.57 1535.36 2361.92 1537 2358.62 1540.48 2355.27 1543.91L2355.78 1542.27 2355.78 1543.09 2376.61 1543.09 2376.61 1547.18 2353 1547.18ZM2394.3 1548C2386.57 1548 2381.83 1542.17 2381.83 1532.9 2381.83 1520.93 2390.64 1510.54 2404.56 1509L2404.76 1510.13C2393.06 1512.69 2387.08 1521.39 2387.08 1532.24 2387.08 1541.35 2389.82 1546.36 2394.35 1546.36 2398.06 1546.36 2400.95 1542.88 2400.95 1536.18 2400.95 1530.04 2398.42 1526.76 2394.2 1526.76 2391.47 1526.76 2388.99 1527.83 2386.47 1530.65L2385.49 1530.04 2385.85 1530.04C2388.48 1526.35 2391.88 1524.51 2396 1524.51 2402.29 1524.51 2406 1529.06 2406 1535.82 2406 1542.83 2401.16 1548 2394.3 1548Z" fill="#5B5651" fill-rule="evenodd"/></g></svg>