<svg width="53" height="865" xmlns="http://www.w3.org/2000/svg" xmlns:xlink="http://www.w3.org/1999/xlink" xml:space="preserve" overflow="hidden"><defs><clipPath id="clip0"><rect x="1877" y="847" width="53" height="865"/></clipPath></defs><g clip-path="url(#clip0)" transform="translate(-1877 -847)"><path d="M1889 1051 1889 1047.86C1892.26 1043.89 1895.53 1039.92 1897.99 1036.94 1903.36 1030.3 1905.57 1026.69 1905.57 1021.88 1905.57 1016.6 1903.01 1013.62 1898.64 1013.62 1896.88 1013.62 1895.13 1014.09 1893.12 1015.29L1895.28 1013.78 1893.97 1019.01C1893.52 1021.36 1892.52 1022.04 1891.31 1022.04 1890.26 1022.04 1889.35 1021.41 1889 1020.31 1889.75 1014.82 1894.72 1012 1900.15 1012 1907.13 1012 1910.59 1015.87 1910.59 1022.04 1910.59 1027 1907.28 1030.87 1899.29 1038.92 1897.69 1040.6 1894.47 1044.15 1891.21 1047.65L1891.71 1045.98 1891.71 1046.82 1912 1046.82 1912 1051 1889 1051Z" fill="#5B5651" fill-rule="evenodd"/><path d="M1896.82 1217 1896.46 1215.64C1907.8 1211.55 1912.92 1203.68 1912.92 1192.31 1912.92 1182.87 1909.85 1178.63 1905.85 1178.63 1902.1 1178.63 1899.03 1182.03 1899.03 1188.74 1899.03 1195.03 1902.21 1198.7 1906.77 1198.7 1909.49 1198.7 1911.8 1197.45 1913.69 1194.98L1914.77 1195.24 1914.31 1195.24C1912.67 1198.65 1909.33 1200.85 1904.92 1200.85 1898.62 1200.85 1894 1196.45 1894 1189.32 1894 1181.56 1899.18 1177 1905.85 1177 1913.33 1177 1918 1182.87 1918 1192.62 1918 1204.26 1910.41 1213.65 1896.82 1217Z" fill="#5B5651" fill-rule="evenodd"/><path d="M1881.21 1381.16 1881.21 1379.69 1888.53 1378.85 1893.09 1378.85 1899.84 1379.74 1899.84 1381.27 1881.21 1381.16ZM1888.06 1381.16C1888.16 1377.12 1888.22 1373.02 1888.22 1369.03L1888.22 1345.67 1881 1346.83 1881 1345.2 1892.73 1342.21 1893.51 1342.79 1893.3 1351.13 1893.3 1369.03C1893.3 1373.02 1893.35 1377.12 1893.46 1381.16L1888.06 1381.16ZM1917.22 1382C1909.43 1382 1904.66 1376.02 1904.66 1366.51 1904.66 1354.23 1913.53 1343.57 1927.55 1342L1927.75 1343.15C1915.97 1345.78 1909.95 1354.7 1909.95 1365.83 1909.95 1375.18 1912.7 1380.32 1917.27 1380.32 1921.01 1380.32 1923.91 1376.75 1923.91 1369.87 1923.91 1363.58 1921.37 1360.22 1917.11 1360.22 1914.36 1360.22 1911.87 1361.32 1909.33 1364.2L1908.34 1363.58 1908.7 1363.58C1911.35 1359.8 1914.78 1357.91 1918.93 1357.91 1925.26 1357.91 1929 1362.58 1929 1369.51 1929 1376.7 1924.12 1382 1917.22 1382Z" fill="#5B5651" fill-rule="evenodd"/><path d="M1877 1546.16 1877 1543.01C1880.4 1539.02 1883.81 1535.03 1886.37 1532.04 1891.97 1525.37 1894.28 1521.75 1894.28 1516.92 1894.28 1511.62 1891.61 1508.63 1887.05 1508.63 1885.22 1508.63 1883.39 1509.1 1881.29 1510.31L1883.54 1508.78 1882.18 1514.03C1881.71 1516.4 1880.66 1517.08 1879.41 1517.08 1878.31 1517.08 1877.37 1516.45 1877 1515.35 1877.79 1509.83 1882.97 1507 1888.62 1507 1895.9 1507 1899.51 1510.88 1899.51 1517.08 1899.51 1522.07 1896.06 1525.95 1887.73 1534.03 1886.06 1535.71 1882.71 1539.28 1879.3 1542.8L1879.83 1541.12 1879.83 1541.96 1900.98 1541.96 1900.98 1546.16 1877 1546.16ZM1917.23 1547C1910.84 1547 1906.91 1544.27 1905.92 1539.18 1906.34 1538.02 1907.23 1537.39 1908.33 1537.39 1909.74 1537.39 1910.58 1538.18 1911.05 1540.44L1912.41 1545.53 1910.26 1543.85C1911.99 1544.8 1913.51 1545.32 1915.71 1545.32 1921.47 1545.32 1924.71 1541.8 1924.71 1536.19 1924.71 1530.31 1921.57 1527 1915.45 1527L1913.14 1527 1913.14 1525.16 1915.18 1525.16C1920.21 1525.16 1923.72 1522.12 1923.72 1516.4 1923.72 1511.46 1921.2 1508.63 1916.75 1508.63 1914.87 1508.63 1913.14 1508.99 1911.05 1510.04L1913.51 1508.57 1912.15 1513.4C1911.68 1515.35 1910.73 1515.98 1909.37 1515.98 1908.38 1515.98 1907.54 1515.5 1907.17 1514.61 1907.96 1509.2 1912.72 1507 1918.01 1507 1924.97 1507 1928.9 1510.73 1928.9 1516.24 1928.9 1521.28 1925.29 1525.48 1917.59 1526.32L1917.59 1525.74C1926.28 1526.16 1930 1530.25 1930 1536.29 1930 1542.75 1924.87 1547 1917.23 1547Z" fill="#5B5651" fill-rule="evenodd"/><path d="M1887.98 1712C1881.78 1712 1877.97 1709.27 1877 1704.18 1877.41 1703.02 1878.27 1702.39 1879.34 1702.39 1880.71 1702.39 1881.53 1703.18 1881.98 1705.44L1883.3 1710.53 1881.22 1708.85C1882.9 1709.8 1884.37 1710.32 1886.51 1710.32 1892.1 1710.32 1895.25 1706.8 1895.25 1701.19 1895.25 1695.31 1892.2 1692 1886.25 1692L1884.02 1692 1884.02 1690.16 1886 1690.16C1890.88 1690.16 1894.29 1687.12 1894.29 1681.4 1894.29 1676.46 1891.85 1673.63 1887.52 1673.63 1885.69 1673.63 1884.02 1673.99 1881.98 1675.04L1884.37 1673.57 1883.05 1678.4C1882.59 1680.35 1881.68 1680.98 1880.36 1680.98 1879.39 1680.98 1878.58 1680.5 1878.22 1679.61 1878.98 1674.2 1883.61 1672 1888.75 1672 1895.51 1672 1899.32 1675.73 1899.32 1681.24 1899.32 1686.28 1895.81 1690.48 1888.34 1691.32L1888.34 1690.74C1896.78 1691.16 1900.39 1695.25 1900.39 1701.29 1900.39 1707.75 1895.41 1712 1887.98 1712ZM1917.95 1712C1911.64 1712 1905.9 1706.17 1905.9 1691.9 1905.9 1677.77 1911.64 1672 1917.95 1672 1924.2 1672 1930 1677.77 1930 1691.9 1930 1706.17 1924.2 1712 1917.95 1712ZM1917.95 1710.32C1921.56 1710.32 1925.12 1706.02 1925.12 1691.9 1925.12 1677.98 1921.56 1673.68 1917.95 1673.68 1914.29 1673.68 1910.78 1677.98 1910.78 1691.9 1910.78 1706.02 1914.29 1710.32 1917.95 1710.32Z" fill="#5B5651" fill-rule="evenodd"/><path d="M1886.4 885 1886.4 883.397 1894.09 882.674 1895.75 882.674 1903.6 883.397 1903.6 885 1886.4 885ZM1891.83 885C1891.98 879.21 1891.98 873.316 1891.98 867.319L1891.98 864.733C1891.98 858.788 1891.98 852.894 1891.83 847L1898.12 847C1897.97 852.791 1897.97 858.736 1897.97 864.733L1897.97 867.319C1897.97 873.213 1897.97 879.158 1898.12 885L1891.83 885ZM1879 857.34 1879.3 847 1910.65 847 1911 857.34 1908.53 857.34 1906.22 847 1909.04 848.913 1880.91 848.913 1883.78 847 1881.47 857.34 1879 857.34Z" fill="#5B5651" fill-rule="evenodd"/></g></svg>