<svg width="53" height="866" xmlns="http://www.w3.org/2000/svg" xmlns:xlink="http://www.w3.org/1999/xlink" xml:space="preserve" overflow="hidden"><defs><clipPath id="clip0"><rect x="1752" y="847" width="53" height="866"/></clipPath></defs><g clip-path="url(#clip0)" transform="translate(-1752 -847)"><path d="M1755 885 1755 883.397 1761 882.674 1762.09 882.674 1768.2 883.397 1768.2 885 1755 885ZM1755.36 848.654 1755.36 847 1762.87 847 1762.87 849.275 1762.3 849.275 1755.36 848.654ZM1760.33 885 1760.49 847 1762.25 847 1762.61 865.819 1762.61 885 1760.33 885ZM1775.7 885 1761.37 848.965 1761 848.965 1761 847 1766.85 847 1779.33 878.589 1778.09 878.589 1778.4 877.814 1790.46 847 1792.84 847 1792.84 848.965 1791.8 848.965 1791.18 850.516 1777.83 885 1775.7 885ZM1785.54 885 1785.54 883.397 1793.1 882.674 1794.34 882.674 1802 883.397 1802 885 1785.54 885ZM1790.51 885C1790.66 879.158 1790.61 873.213 1790.66 868.146L1790.87 847 1796.93 847C1796.77 852.842 1796.77 858.788 1796.77 864.733L1796.77 867.319C1796.77 873.316 1796.77 879.21 1796.93 885L1790.51 885ZM1793.67 849.275 1793.67 847 1801.9 847 1801.9 848.654 1794.34 849.275 1793.67 849.275Z" fill="#5B5651" fill-rule="evenodd"/><path d="M1769.21 1051.9 1769.21 1050.47 1776.59 1049.65 1781.2 1049.65 1788 1050.52 1788 1052 1769.21 1051.9ZM1776.12 1051.9C1776.22 1047.97 1776.28 1043.98 1776.28 1040.1L1776.28 1017.37 1769 1018.49 1769 1016.91 1780.83 1014 1781.61 1014.56 1781.4 1022.68 1781.4 1040.1C1781.4 1043.98 1781.46 1047.97 1781.56 1051.9L1776.12 1051.9Z" fill="#5B5651" fill-rule="evenodd"/><path d="M1780.61 1218C1772.99 1218 1769 1214.27 1769 1208.81 1769 1203.98 1772.31 1200.68 1778.66 1198.21L1778.66 1197.95 1779.77 1198.68C1775.25 1201.46 1773.41 1204.14 1773.41 1208.24 1773.41 1213.38 1776.19 1216.32 1780.87 1216.32 1785.54 1216.32 1788.27 1213.54 1788.27 1209.23 1788.27 1205.35 1786.07 1202.25 1778.82 1199.1 1772.68 1196.48 1770.05 1192.49 1770.05 1187.66 1770.05 1181.73 1774.88 1178 1781.13 1178 1787.8 1178 1791.48 1181.78 1791.48 1186.82 1791.48 1190.55 1789.17 1194.22 1782.6 1196.9L1782.6 1197.11 1781.71 1196.48C1785.65 1193.7 1787.28 1190.86 1787.28 1186.66 1787.28 1182.83 1785.07 1179.68 1780.97 1179.68 1777.56 1179.68 1774.51 1182.15 1774.51 1186.24 1774.51 1189.81 1776.19 1193.07 1782.86 1195.95 1790.06 1199.1 1793 1202.62 1793 1207.76 1793 1213.96 1788.22 1218 1780.61 1218Z" fill="#5B5651" fill-rule="evenodd"/><path d="M1756.2 1382.18 1756.2 1380.74 1763.43 1379.91 1767.93 1379.91 1774.59 1380.79 1774.59 1382.28 1756.2 1382.18ZM1762.96 1382.18C1763.07 1378.22 1763.12 1374.2 1763.12 1370.29L1763.12 1347.4 1756 1348.53 1756 1346.93 1767.57 1344 1768.34 1344.57 1768.14 1352.75 1768.14 1370.29C1768.14 1374.2 1768.19 1378.22 1768.29 1382.18L1762.96 1382.18ZM1789.48 1383C1783.64 1383 1779.7 1380.17 1778.83 1375.28 1779.24 1374.2 1780.16 1373.64 1781.23 1373.64 1782.62 1373.64 1783.44 1374.41 1783.8 1376.52L1785.13 1381.41 1783.39 1379.96C1785.13 1380.89 1786.46 1381.35 1788.71 1381.35 1794.4 1381.35 1797.67 1377.7 1797.67 1371.11 1797.67 1364.84 1794.29 1361.8 1789.12 1361.8 1786.97 1361.8 1785.02 1362.16 1783.23 1362.93L1781.9 1362.32 1783.08 1344.57 1801.93 1344.57 1801.93 1348.68 1783.95 1348.68 1785.02 1345.85 1783.9 1362.01 1782.26 1361.44C1784.97 1360.1 1787.53 1359.59 1790.56 1359.59 1798.14 1359.59 1803 1363.5 1803 1370.91 1803 1378.32 1797.62 1383 1789.48 1383Z" fill="#5B5651" fill-rule="evenodd"/><path d="M1752 1547 1752 1543.86C1755.35 1539.89 1758.71 1535.92 1761.23 1532.94 1766.75 1526.3 1769.02 1522.69 1769.02 1517.88 1769.02 1512.6 1766.39 1509.62 1761.91 1509.62 1760.1 1509.62 1758.29 1510.09 1756.23 1511.29L1758.45 1509.78 1757.11 1515.01C1756.64 1517.36 1755.61 1518.04 1754.37 1518.04 1753.29 1518.04 1752.36 1517.41 1752 1516.31 1752.77 1510.82 1757.88 1508 1763.45 1508 1770.62 1508 1774.18 1511.87 1774.18 1518.04 1774.18 1523 1770.78 1526.87 1762.58 1534.92 1760.93 1536.6 1757.62 1540.15 1754.27 1543.65L1754.79 1541.98 1754.79 1542.82 1775.63 1542.82 1775.63 1547 1752 1547ZM1781.37 1547 1781.37 1543.86C1784.73 1539.89 1788.08 1535.92 1790.61 1532.94 1796.13 1526.3 1798.4 1522.69 1798.4 1517.88 1798.4 1512.6 1795.77 1509.62 1791.28 1509.62 1789.47 1509.62 1787.67 1510.09 1785.6 1511.29L1787.82 1509.78 1786.48 1515.01C1786.02 1517.36 1784.98 1518.04 1783.75 1518.04 1782.66 1518.04 1781.73 1517.41 1781.37 1516.31 1782.15 1510.82 1787.25 1508 1792.83 1508 1800 1508 1803.56 1511.87 1803.56 1518.04 1803.56 1523 1800.15 1526.87 1791.95 1534.92 1790.3 1536.6 1787 1540.15 1783.64 1543.65L1784.16 1541.98 1784.16 1542.82 1805 1542.82 1805 1547 1781.37 1547Z" fill="#5B5651" fill-rule="evenodd"/><path d="M1752 1712.11 1752 1708.96C1755.36 1704.98 1758.72 1700.99 1761.25 1698.01 1766.78 1691.35 1769.06 1687.73 1769.06 1682.91 1769.06 1677.61 1766.42 1674.63 1761.92 1674.63 1760.12 1674.63 1758.31 1675.1 1756.24 1676.3L1758.46 1674.78 1757.12 1680.02C1756.65 1682.38 1755.62 1683.07 1754.38 1683.07 1753.29 1683.07 1752.36 1682.44 1752 1681.34 1752.78 1675.83 1757.89 1673 1763.48 1673 1770.66 1673 1774.23 1676.88 1774.23 1683.07 1774.23 1688.05 1770.82 1691.93 1762.6 1700 1760.94 1701.68 1757.63 1705.24 1754.27 1708.75L1754.79 1707.08 1754.79 1707.92 1775.67 1707.92 1775.67 1712.11 1752 1712.11ZM1783.65 1713 1783.29 1711.64C1794.71 1707.55 1799.88 1699.68 1799.88 1688.31 1799.88 1678.87 1796.78 1674.63 1792.75 1674.63 1788.98 1674.63 1785.87 1678.03 1785.87 1684.74 1785.87 1691.03 1789.08 1694.7 1793.68 1694.7 1796.42 1694.7 1798.75 1693.45 1800.66 1690.98L1801.74 1691.24 1801.28 1691.24C1799.62 1694.65 1796.26 1696.85 1791.82 1696.85 1785.46 1696.85 1780.81 1692.45 1780.81 1685.32 1780.81 1677.56 1786.03 1673 1792.75 1673 1800.3 1673 1805 1678.87 1805 1688.62 1805 1700.26 1797.35 1709.65 1783.65 1713Z" fill="#5B5651" fill-rule="evenodd"/></g></svg>