<svg width="53" height="699" xmlns="http://www.w3.org/2000/svg" xmlns:xlink="http://www.w3.org/1999/xlink" xml:space="preserve" overflow="hidden"><defs><clipPath id="clip0"><rect x="2692" y="849" width="53" height="699"/></clipPath></defs><g clip-path="url(#clip0)" transform="translate(-2692 -849)"><path d="M2720.24 888C2716.03 888 2711.72 886.786 2709 885.066L2709.31 877.024 2711.77 877.024 2713.93 886.078 2711.1 884.864 2710.69 883.094C2714.03 885.42 2716.19 886.027 2719.73 886.027 2725.12 886.027 2728.46 883.599 2728.46 879.098 2728.46 875.506 2726.81 873.634 2721.78 871.51L2719.47 870.549C2713.06 867.817 2709.72 864.58 2709.72 859.066 2709.72 852.541 2715.16 849 2722.45 849 2726.4 849 2729.53 850.062 2732.15 851.833L2731.84 859.42 2729.33 859.42 2727.28 850.771 2730.2 852.086 2730.51 853.907C2727.74 851.732 2725.94 850.973 2723.01 850.973 2718.34 850.973 2715.06 853.199 2715.06 857.397 2715.06 861.09 2717.32 863.113 2721.22 864.732L2723.68 865.794C2731.43 869.082 2734 871.965 2734 877.327 2734 883.802 2728.76 888 2720.24 888Z" fill="#D95858" fill-rule="evenodd"/><path d="M2714 1052 2713.58 1051.65 2730.18 1017.48 2729.61 1019.86 2729.61 1019.05 2709 1019.05 2709 1015 2732 1015 2732 1017.58 2718.37 1052 2714 1052Z" fill="#D95858" fill-rule="evenodd"/><path d="M2696.2 1217.08 2696.2 1215.64 2703.35 1214.82 2707.81 1214.82 2714.4 1215.69 2714.4 1217.18 2696.2 1217.08ZM2702.9 1217.08C2703 1213.13 2703.05 1209.13 2703.05 1205.24L2703.05 1182.43 2696 1183.56 2696 1181.97 2707.46 1179.05 2708.22 1179.62 2708.02 1187.76 2708.02 1205.24C2708.02 1209.13 2708.07 1213.13 2708.17 1217.08L2702.9 1217.08ZM2733.56 1218 2733.56 1206.32 2733.56 1182.38 2732.9 1182.38 2734.72 1181.61 2727.47 1193.04 2719.77 1205.14 2720.22 1203.34 2720.22 1204.06 2744 1204.06 2744 1207.49 2718.14 1207.49 2718.14 1204.73 2734.67 1179 2738.07 1179 2738.07 1218 2733.56 1218Z" fill="#D95858" fill-rule="evenodd"/><path d="M2695 1381.9 2695 1378.85C2698.41 1374.99 2701.81 1371.13 2704.38 1368.23 2709.98 1361.78 2712.29 1358.28 2712.29 1353.6 2712.29 1348.47 2709.62 1345.57 2705.06 1345.57 2703.22 1345.57 2701.39 1346.03 2699.3 1347.2L2701.55 1345.73 2700.19 1350.81C2699.72 1353.09 2698.67 1353.75 2697.41 1353.75 2696.31 1353.75 2695.37 1353.14 2695 1352.08 2695.79 1346.74 2700.97 1344 2706.63 1344 2713.91 1344 2717.53 1347.76 2717.53 1353.75 2717.53 1358.58 2714.07 1362.34 2705.74 1370.16 2704.06 1371.79 2700.71 1375.24 2697.3 1378.65L2697.83 1377.02 2697.83 1377.83 2718.99 1377.83 2718.99 1381.9 2695 1381.9ZM2725.19 1381.9 2725.19 1380.48 2732.58 1379.66 2737.19 1379.66 2744 1380.53 2744 1382 2725.19 1381.9ZM2732.11 1381.9C2732.21 1377.99 2732.27 1374.02 2732.27 1370.16L2732.27 1347.56 2724.98 1348.67 2724.98 1347.1 2736.82 1344.2 2737.61 1344.76 2737.4 1352.84 2737.4 1370.16C2737.4 1374.02 2737.45 1377.99 2737.56 1381.9L2732.11 1381.9Z" fill="#D95858" fill-rule="evenodd"/><path d="M2692 1547.18 2692 1544.11C2695.38 1540.22 2698.75 1536.33 2701.3 1533.41 2706.86 1526.91 2709.14 1523.38 2709.14 1518.67 2709.14 1513.5 2706.49 1510.59 2701.97 1510.59 2700.16 1510.59 2698.34 1511.05 2696.26 1512.22L2698.49 1510.74 2697.14 1515.86C2696.68 1518.16 2695.64 1518.83 2694.39 1518.83 2693.3 1518.83 2692.36 1518.21 2692 1517.14 2692.78 1511.76 2697.92 1509 2703.53 1509 2710.75 1509 2714.34 1512.79 2714.34 1518.83 2714.34 1523.69 2710.91 1527.48 2702.65 1535.36 2700.99 1537 2697.66 1540.48 2694.29 1543.91L2694.8 1542.27 2694.8 1543.09 2715.79 1543.09 2715.79 1547.18 2692 1547.18ZM2732.74 1548C2725.21 1548 2721.26 1544.37 2721.26 1539.04 2721.26 1534.33 2724.53 1531.11 2730.82 1528.7L2730.82 1528.45 2731.91 1529.17C2727.44 1531.88 2725.62 1534.49 2725.62 1538.48 2725.62 1543.5 2728.38 1546.36 2733 1546.36 2737.62 1546.36 2740.32 1543.65 2740.32 1539.45 2740.32 1535.67 2738.14 1532.65 2730.98 1529.58 2724.9 1527.02 2722.3 1523.13 2722.3 1518.42 2722.3 1512.63 2727.08 1509 2733.26 1509 2739.86 1509 2743.49 1512.69 2743.49 1517.6 2743.49 1521.23 2741.21 1524.81 2734.72 1527.43L2734.72 1527.63 2733.83 1527.02C2737.73 1524.3 2739.34 1521.54 2739.34 1517.44 2739.34 1513.71 2737.16 1510.64 2733.1 1510.64 2729.73 1510.64 2726.72 1513.04 2726.72 1517.04 2726.72 1520.52 2728.38 1523.69 2734.97 1526.5 2742.09 1529.58 2745 1533 2745 1538.02 2745 1544.06 2740.27 1548 2732.74 1548Z" fill="#D95858" fill-rule="evenodd"/></g></svg>