<svg width="53" height="696" xmlns="http://www.w3.org/2000/svg" xmlns:xlink="http://www.w3.org/1999/xlink" xml:space="preserve" overflow="hidden"><defs><clipPath id="clip0"><rect x="2174" y="850" width="53" height="696"/></clipPath></defs><g clip-path="url(#clip0)" transform="translate(-2174 -850)"><path d="M2205.48 1052 2205.48 1040.02 2205.48 1039.23 2205.48 1015.42 2204.86 1015.42 2206.7 1014.68 2199.35 1026.4 2191.63 1038.75 2192.04 1036.91 2192.04 1037.7 2216 1037.7 2216 1041.17 2190 1041.17 2190 1038.39 2206.65 1012 2210.02 1012 2210.02 1052 2205.48 1052Z" fill="#5B5651" fill-rule="evenodd"/><path d="M2181.21 1215.9 2181.21 1214.43 2188.5 1213.59 2193.05 1213.59 2199.77 1214.48 2199.77 1216 2181.21 1215.9ZM2188.03 1215.9C2188.13 1211.86 2188.19 1207.77 2188.19 1203.79L2188.19 1180.46 2181 1181.61 2181 1179.99 2192.68 1177 2193.46 1177.58 2193.25 1185.91 2193.25 1203.79C2193.25 1207.77 2193.3 1211.86 2193.41 1215.9L2188.03 1215.9ZM2205.44 1215.9 2205.44 1214.43 2212.73 1213.59 2217.28 1213.59 2224 1214.48 2224 1216 2205.44 1215.9ZM2212.26 1215.9C2212.37 1211.86 2212.42 1207.77 2212.42 1203.79L2212.42 1180.46 2205.23 1181.61 2205.23 1179.99 2216.92 1177 2217.69 1177.58 2217.49 1185.91 2217.49 1203.79C2217.49 1207.77 2217.54 1211.86 2217.64 1215.9L2212.26 1215.9Z" fill="#5B5651" fill-rule="evenodd"/><path d="M2178.21 1380.18 2178.21 1378.75 2185.43 1377.93 2189.95 1377.93 2196.61 1378.8 2196.61 1380.28 2178.21 1380.18ZM2184.97 1380.18C2185.08 1376.24 2185.13 1372.25 2185.13 1368.36L2185.13 1345.58 2178 1346.71 2178 1345.12 2189.59 1342.2 2190.36 1342.77 2190.15 1350.91 2190.15 1368.36C2190.15 1372.25 2190.2 1376.24 2190.3 1380.18L2184.97 1380.18ZM2212.9 1381C2205.47 1381 2201.57 1377.37 2201.57 1372.04 2201.57 1367.33 2204.8 1364.11 2211 1361.7L2211 1361.45 2212.08 1362.17C2207.67 1364.88 2205.88 1367.49 2205.88 1371.48 2205.88 1376.5 2208.59 1379.36 2213.16 1379.36 2217.72 1379.36 2220.39 1376.65 2220.39 1372.45 2220.39 1368.67 2218.23 1365.65 2211.16 1362.57 2205.16 1360.02 2202.6 1356.13 2202.6 1351.42 2202.6 1345.63 2207.31 1342 2213.41 1342 2219.92 1342 2223.51 1345.69 2223.51 1350.6 2223.51 1354.23 2221.26 1357.81 2214.85 1360.43L2214.85 1360.63 2213.98 1360.02C2217.82 1357.3 2219.41 1354.54 2219.41 1350.44 2219.41 1346.71 2217.26 1343.64 2213.26 1343.64 2209.93 1343.64 2206.95 1346.04 2206.95 1350.04 2206.95 1353.52 2208.59 1356.69 2215.11 1359.5 2222.13 1362.57 2225 1366 2225 1371.02 2225 1377.06 2220.33 1381 2212.9 1381Z" fill="#5B5651" fill-rule="evenodd"/><path d="M2174 1545.23 2174 1542.11C2175.7 1540.2 2177.34 1538.31 2178.93 1536.43 2180.53 1534.55 2181.96 1532.9 2183.25 1531.46 2185.12 1529.28 2186.62 1527.39 2187.76 1525.78 2188.91 1524.15 2189.76 1522.61 2190.31 1521.18 2190.86 1519.74 2191.14 1518.24 2191.14 1516.67 2191.14 1514.08 2190.5 1512.1 2189.22 1510.74 2187.97 1509.34 2186.21 1508.64 2183.92 1508.64 2183.02 1508.64 2182.1 1508.76 2181.17 1509 2180.27 1509.23 2179.3 1509.66 2178.26 1510.28L2180.49 1508.79 2179.14 1513.91C2178.87 1515.04 2178.48 1515.82 2178 1516.26 2177.51 1516.67 2176.98 1516.88 2176.39 1516.88 2175.8 1516.88 2175.3 1516.72 2174.88 1516.42 2174.47 1516.08 2174.17 1515.65 2174 1515.14 2174.24 1513.33 2174.92 1511.83 2176.03 1510.63 2177.17 1509.44 2178.57 1508.54 2180.23 1507.92 2181.9 1507.31 2183.64 1507 2185.48 1507 2189.12 1507 2191.82 1507.89 2193.58 1509.66 2195.38 1511.44 2196.28 1513.84 2196.28 1516.88 2196.28 1518.48 2195.89 1520.05 2195.09 1521.59 2194.29 1523.09 2193.03 1524.78 2191.3 1526.65 2189.6 1528.5 2187.38 1530.75 2184.65 1533.41 2184.06 1533.92 2183.33 1534.64 2182.47 1535.56 2181.6 1536.45 2180.63 1537.45 2179.56 1538.58 2178.48 1539.67 2177.39 1540.8 2176.29 1541.96L2176.75 1540.32 2176.75 1541.14 2197.79 1541.14 2197.79 1545.23 2174 1545.23ZM2213.29 1546C2210.34 1546 2207.92 1545.33 2206.01 1544 2204.11 1542.67 2202.95 1540.8 2202.53 1538.37 2202.74 1537.83 2203.05 1537.42 2203.47 1537.15 2203.89 1536.87 2204.37 1536.74 2204.92 1536.74 2205.65 1536.74 2206.22 1536.96 2206.64 1537.4 2207.05 1537.81 2207.36 1538.53 2207.57 1539.55L2208.87 1544.41 2207.11 1542.98C2208.01 1543.46 2208.85 1543.82 2209.65 1544.06 2210.45 1544.26 2211.42 1544.36 2212.56 1544.36 2215.43 1544.36 2217.65 1543.49 2219.21 1541.75 2220.8 1539.98 2221.6 1537.47 2221.6 1534.23 2221.6 1531.09 2220.8 1528.77 2219.21 1527.27 2217.65 1525.73 2215.57 1524.96 2212.98 1524.96 2211.87 1524.96 2210.81 1525.05 2209.81 1525.22 2208.84 1525.39 2207.9 1525.68 2207 1526.09L2205.6 1525.48 2206.85 1507.77 2225.91 1507.77 2225.91 1511.91 2207.73 1511.91 2208.77 1509.1 2207.68 1525.12 2205.96 1524.61C2207.38 1523.92 2208.77 1523.45 2210.12 1523.17 2211.47 1522.87 2212.89 1522.71 2214.38 1522.71 2218.26 1522.71 2221.32 1523.67 2223.57 1525.58 2225.86 1527.49 2227 1530.29 2227 1533.97 2227 1536.43 2226.43 1538.56 2225.29 1540.37 2224.14 1542.14 2222.55 1543.53 2220.51 1544.52 2218.46 1545.51 2216.06 1546 2213.29 1546Z" fill="#5B5651" fill-rule="evenodd"/><path d="M2198.63 887 2198.63 885.439 2206.57 884.735 2208.28 884.735 2216.37 885.439 2216.37 887 2198.63 887ZM2204.23 887C2204.39 881.362 2204.39 875.623 2204.39 869.784L2204.39 867.267C2204.39 861.478 2204.39 855.739 2204.23 850L2210.72 850C2210.56 855.638 2210.56 861.427 2210.56 867.267L2210.56 869.784C2210.56 875.523 2210.56 881.311 2210.72 887L2204.23 887ZM2191 860.068 2191.31 850 2223.64 850 2224 860.068 2221.46 860.068 2219.07 850 2221.98 851.863 2192.97 851.863 2195.93 850 2193.54 860.068 2191 860.068Z" fill="#5B5651" fill-rule="evenodd"/></g></svg>