<svg width="55" height="697" xmlns="http://www.w3.org/2000/svg" xmlns:xlink="http://www.w3.org/1999/xlink" xml:space="preserve" overflow="hidden"><defs><clipPath id="clip0"><rect x="2015" y="849" width="55" height="697"/></clipPath></defs><g clip-path="url(#clip0)" transform="translate(-2015 -849)"><path d="M2043.27 1051C2036.9 1051 2032.99 1048.34 2032 1043.37 2032.42 1042.25 2033.3 1041.63 2034.4 1041.63 2035.81 1041.63 2036.64 1042.4 2037.11 1044.6L2038.47 1049.57 2036.33 1047.93C2038.05 1048.85 2039.57 1049.36 2041.76 1049.36 2047.5 1049.36 2050.73 1045.93 2050.73 1040.46 2050.73 1034.72 2047.6 1031.5 2041.5 1031.5L2039.2 1031.5 2039.2 1029.71 2041.23 1029.71C2046.24 1029.71 2049.74 1026.74 2049.74 1021.16 2049.74 1016.35 2047.23 1013.59 2042.8 1013.59 2040.92 1013.59 2039.2 1013.94 2037.11 1014.97L2039.57 1013.54 2038.21 1018.24C2037.74 1020.14 2036.8 1020.75 2035.44 1020.75 2034.45 1020.75 2033.62 1020.29 2033.25 1019.42 2034.03 1014.15 2038.78 1012 2044.05 1012 2050.99 1012 2054.9 1015.63 2054.9 1021.01 2054.9 1025.92 2051.3 1030.02 2043.63 1030.83L2043.63 1030.27C2052.3 1030.68 2056 1034.67 2056 1040.56 2056 1046.85 2050.89 1051 2043.27 1051Z" fill="#5B5651" fill-rule="evenodd"/><path d="M2019.21 1215.18 2019.21 1213.75 2026.53 1212.93 2031.11 1212.93 2037.86 1213.8 2037.86 1215.28 2019.21 1215.18ZM2026.07 1215.18C2026.17 1211.24 2026.22 1207.25 2026.22 1203.36L2026.22 1180.58 2019 1181.71 2019 1180.12 2030.74 1177.2 2031.52 1177.77 2031.31 1185.91 2031.31 1203.36C2031.31 1207.25 2031.37 1211.24 2031.47 1215.18L2026.07 1215.18ZM2054.69 1216C2048.24 1216 2042.37 1210.32 2042.37 1196.4 2042.37 1182.63 2048.24 1177 2054.69 1177 2061.08 1177 2067 1182.63 2067 1196.4 2067 1210.32 2061.08 1216 2054.69 1216ZM2054.69 1214.36C2058.37 1214.36 2062.01 1210.17 2062.01 1196.4 2062.01 1182.83 2058.37 1178.64 2054.69 1178.64 2050.94 1178.64 2047.36 1182.83 2047.36 1196.4 2047.36 1210.17 2050.94 1214.36 2054.69 1214.36Z" fill="#5B5651" fill-rule="evenodd"/><path d="M2019.21 1379.9 2019.21 1378.47 2026.56 1377.65 2031.14 1377.65 2037.92 1378.52 2037.92 1380 2019.21 1379.9ZM2026.09 1379.9C2026.19 1375.97 2026.24 1371.98 2026.24 1368.1L2026.24 1345.37 2019 1346.49 2019 1344.91 2030.78 1342 2031.56 1342.56 2031.35 1350.68 2031.35 1368.1C2031.35 1371.98 2031.4 1375.97 2031.51 1379.9L2026.09 1379.9ZM2047.97 1379.9 2047.55 1379.54 2064.18 1345.06 2063.6 1347.47 2063.6 1346.65 2042.96 1346.65 2042.96 1342.56 2066 1342.56 2066 1345.17 2052.34 1379.9 2047.97 1379.9Z" fill="#5B5651" fill-rule="evenodd"/><path d="M2016 1545.08 2016 1542.02C2019.34 1538.14 2022.68 1534.26 2025.2 1531.35 2030.7 1524.87 2032.97 1521.34 2032.97 1516.65 2032.97 1511.49 2030.34 1508.58 2025.87 1508.58 2024.07 1508.58 2022.27 1509.04 2020.22 1510.22L2022.43 1508.74 2021.09 1513.84C2020.63 1516.14 2019.6 1516.8 2018.36 1516.8 2017.29 1516.8 2016.36 1516.19 2016 1515.12 2016.77 1509.76 2021.86 1507 2027.41 1507 2034.56 1507 2038.11 1510.78 2038.11 1516.8 2038.11 1521.65 2034.71 1525.43 2026.54 1533.29 2024.89 1534.92 2021.6 1538.39 2018.26 1541.81L2018.78 1540.18 2018.78 1541 2039.55 1541 2039.55 1545.08 2016 1545.08ZM2059.41 1546 2059.41 1534.36 2059.41 1510.52 2058.74 1510.52 2060.59 1509.76 2053.24 1521.14 2045.43 1533.19 2045.89 1531.4 2045.89 1532.12 2070 1532.12 2070 1535.54 2043.78 1535.54 2043.78 1532.78 2060.54 1507.15 2063.98 1507.15 2063.98 1546 2059.41 1546Z" fill="#5B5651" fill-rule="evenodd"/><path d="M2029.59 888 2018.58 849 2025.08 849 2033.7 882.098 2032.76 882.098 2033.02 881.307 2042.32 849 2045.8 849 2055.3 882.308 2054.42 882.308 2054.58 881.465 2063.09 849 2065.59 849 2054.73 888 2051.36 888 2041.59 855.272 2042.58 855.272 2042.37 856.062 2032.97 888 2029.59 888ZM2015 850.687 2015 849 2030.79 849 2030.79 850.687 2023.57 851.319 2022.17 851.319 2015 850.687ZM2036.55 850.687 2036.55 849 2052.03 849 2052.03 850.687 2045.28 851.319 2042.99 851.319 2036.55 850.687ZM2057.38 850.687 2057.38 849 2070 849 2070 850.687 2064.29 851.319 2063.09 851.319 2057.38 850.687Z" fill="#5B5651" fill-rule="evenodd"/></g></svg>